<?xml version="1.0" encoding="utf-8"?>
<!-- Generator: Adobe Illustrator 14.0.0, SVG Export Plug-In . SVG Version: 6.00 Build 43363)  -->
<!DOCTYPE svg PUBLIC "-//W3C//DTD SVG 1.1//EN" "http://www.w3.org/Graphics/SVG/1.1/DTD/svg11.dtd">
<svg version="1.1" id="Layer_1" xmlns="http://www.w3.org/2000/svg" xmlns:xlink="http://www.w3.org/1999/xlink" x="0px" y="0px"
	 width="1485.148px" height="1469.395px" viewBox="-333.768 0 1485.148 1469.395"
	 enable-background="new -333.768 0 1485.148 1469.395" xml:space="preserve">
<g>
	<g>
		<g>
			<line fill="none" x1="140.368" y1="-278.633" x2="621.299" y2="1731.285"/>
			<polygon fill="#1FA77D" points="633.438,1728.377 609.16,1734.188 128.229,-275.727 152.507,-281.538 			"/>
		</g>
		<g>
			<line fill="none" x1="194.858" y1="-291.671" x2="675.789" y2="1718.246"/>
			<polygon fill="#1FA77D" points="687.928,1715.338 663.65,1721.148 182.72,-288.766 206.997,-294.576 			"/>
		</g>
		<g>
			<line fill="none" x1="358.332" y1="-330.784" x2="839.262" y2="1679.127"/>
			<polygon fill="#1FA77D" points="851.4,1676.219 827.122,1682.029 346.193,-327.881 370.471,-333.689 			"/>
		</g>
		<g>
			<line fill="none" x1="249.35" y1="-304.707" x2="730.28" y2="1705.203"/>
			<polygon fill="#1FA77D" points="742.418,1702.297 718.141,1708.105 237.211,-301.802 261.489,-307.613 			"/>
		</g>
		<g>
			<line fill="none" x1="303.841" y1="-317.747" x2="784.771" y2="1692.17"/>
			<polygon fill="#1FA77D" points="796.91,1689.262 772.633,1695.072 291.702,-314.844 315.98,-320.652 			"/>
		</g>
		<g>
			<line fill="none" x1="412.822" y1="-343.824" x2="893.752" y2="1666.088"/>
			<polygon fill="#1FA77D" points="905.891,1663.182 881.613,1668.992 400.683,-340.919 424.961,-346.728 			"/>
		</g>
		<g>
			<line fill="none" x1="467.312" y1="-356.865" x2="948.244" y2="1653.055"/>
			<polygon fill="#1FA77D" points="960.383,1650.146 936.104,1655.957 455.174,-353.959 479.451,-359.767 			"/>
		</g>
		<g>
			<line fill="none" x1="521.805" y1="-369.902" x2="1002.736" y2="1640.012"/>
			<polygon fill="#1FA77D" points="1014.875,1637.109 990.596,1642.92 509.665,-366.998 533.942,-372.808 			"/>
		</g>
		<g>
			<line fill="none" x1="576.294" y1="-382.941" x2="1057.225" y2="1626.975"/>
			<polygon fill="#1FA77D" points="1069.363,1624.07 1045.088,1629.879 564.155,-380.036 588.434,-385.846 			"/>
		</g>
		<g>
			<line fill="none" x1="739.768" y1="-422.054" x2="1220.695" y2="1587.854"/>
			<polygon fill="#1FA77D" points="1232.834,1584.951 1208.557,1590.762 727.627,-419.149 751.906,-424.959 			"/>
		</g>
		<g>
			<line fill="none" x1="630.785" y1="-395.977" x2="1111.715" y2="1613.932"/>
			<polygon fill="#1FA77D" points="1123.854,1611.029 1099.574,1616.838 618.645,-393.073 642.924,-398.883 			"/>
		</g>
		<g>
			<line fill="none" x1="685.275" y1="-409.018" x2="1166.207" y2="1600.898"/>
			<polygon fill="#1FA77D" points="1178.346,1597.994 1154.068,1603.805 673.137,-406.113 697.414,-411.923 			"/>
		</g>
		<g>
			<line fill="none" x1="794.258" y1="-435.093" x2="1275.188" y2="1574.816"/>
			<polygon fill="#1FA77D" points="1287.326,1571.912 1263.049,1577.723 782.119,-432.189 806.396,-437.998 			"/>
		</g>
		<g>
			<line fill="none" x1="848.749" y1="-448.134" x2="1329.682" y2="1561.781"/>
			<polygon fill="#1FA77D" points="1341.818,1558.879 1317.541,1564.688 836.609,-445.229 860.889,-451.038 			"/>
		</g>
		<g>
			<line fill="none" x1="903.238" y1="-461.171" x2="1384.17" y2="1548.742"/>
			<polygon fill="#1FA77D" points="1396.309,1545.84 1372.029,1551.65 891.1,-458.266 915.377,-464.077 			"/>
		</g>
		<g>
			<line fill="none" x1="957.729" y1="-474.211" x2="1438.66" y2="1535.705"/>
			<polygon fill="#1FA77D" points="1450.799,1532.803 1426.52,1538.611 945.59,-471.306 969.869,-477.115 			"/>
		</g>
		<g>
			<line fill="none" x1="1121.203" y1="-513.324" x2="1602.133" y2="1496.586"/>
			<polygon fill="#1FA77D" points="1614.271,1493.684 1589.992,1499.492 1109.061,-510.42 1133.342,-516.229 			"/>
		</g>
		<g>
			<line fill="none" x1="1012.223" y1="-487.247" x2="1493.15" y2="1522.664"/>
			<polygon fill="#1FA77D" points="1505.289,1519.76 1481.012,1525.566 1000.082,-484.342 1024.359,-490.153 			"/>
		</g>
		<g>
			<line fill="none" x1="1066.713" y1="-500.288" x2="1547.643" y2="1509.629"/>
			<polygon fill="#1FA77D" points="1559.779,1506.725 1535.502,1512.531 1054.572,-497.383 1078.85,-503.192 			"/>
		</g>
		<g>
			<line fill="none" x1="1175.693" y1="-526.363" x2="1656.623" y2="1483.547"/>
			<polygon fill="#1FA77D" points="1668.76,1480.645 1644.484,1486.451 1163.555,-523.458 1187.83,-529.266 			"/>
		</g>
		<g>
			<line fill="none" x1="1230.184" y1="-539.404" x2="1711.113" y2="1470.514"/>
			<polygon fill="#1FA77D" points="1723.254,1467.611 1698.977,1473.416 1218.043,-536.498 1242.322,-542.309 			"/>
		</g>
		<g>
			<line fill="none" x1="1284.678" y1="-552.443" x2="1765.607" y2="1457.473"/>
			<polygon fill="#1FA77D" points="1777.744,1454.568 1753.467,1460.377 1272.535,-549.536 1296.814,-555.346 			"/>
		</g>
		<g>
			<line fill="none" x1="1339.166" y1="-565.48" x2="1820.096" y2="1444.436"/>
			<polygon fill="#1FA77D" points="1832.234,1441.529 1807.953,1447.338 1327.023,-562.576 1351.303,-568.386 			"/>
		</g>
		<g>
			<line fill="none" x1="1502.639" y1="-604.595" x2="1983.568" y2="1405.318"/>
			<polygon fill="#1FA77D" points="1995.707,1402.412 1971.43,1408.221 1490.498,-601.69 1514.779,-607.499 			"/>
		</g>
		<g>
			<line fill="none" x1="1393.656" y1="-578.517" x2="1874.586" y2="1431.395"/>
			<polygon fill="#1FA77D" points="1886.723,1428.488 1862.447,1434.297 1381.518,-575.613 1405.795,-581.422 			"/>
		</g>
		<g>
			<line fill="none" x1="1448.145" y1="-591.558" x2="1929.076" y2="1418.359"/>
			<polygon fill="#1FA77D" points="1941.215,1415.457 1916.936,1421.264 1436.004,-588.653 1460.281,-594.461 			"/>
		</g>
		<g>
			<line fill="none" x1="1557.127" y1="-617.632" x2="2038.057" y2="1392.277"/>
			<polygon fill="#1FA77D" points="2050.195,1389.373 2025.918,1395.182 1544.988,-614.728 1569.266,-620.537 			"/>
		</g>
		<g>
			<line fill="none" x1="1611.619" y1="-630.674" x2="2092.549" y2="1379.244"/>
			<polygon fill="#1FA77D" points="2104.688,1376.336 2080.41,1382.148 1599.479,-627.769 1623.758,-633.576 			"/>
		</g>
	</g>
	<g>
		<g>
			<line fill="none" x1="-1386.784" y1="63.401" x2="-905.853" y2="2073.318"/>
			<polygon fill="#1FA77D" points="-893.714,2070.412 -917.992,2076.221 -1398.923,66.307 -1374.645,60.496 			"/>
		</g>
		<g>
			<line fill="none" x1="-1332.294" y1="50.363" x2="-851.363" y2="2060.279"/>
			<polygon fill="#1FA77D" points="-839.224,2057.373 -863.501,2063.184 -1344.432,53.268 -1320.155,47.458 			"/>
		</g>
		<g>
			<line fill="none" x1="-1168.82" y1="11.25" x2="-687.89" y2="2021.162"/>
			<polygon fill="#1FA77D" points="-675.752,2018.254 -700.03,2024.064 -1180.959,14.153 -1156.681,8.345 			"/>
		</g>
		<g>
			<line fill="none" x1="-1277.802" y1="37.327" x2="-796.872" y2="2047.238"/>
			<polygon fill="#1FA77D" points="-784.734,2044.332 -809.012,2050.141 -1289.941,40.232 -1265.663,34.421 			"/>
		</g>
		<g>
			<line fill="none" x1="-1223.311" y1="24.287" x2="-742.381" y2="2034.205"/>
			<polygon fill="#1FA77D" points="-730.242,2031.297 -754.52,2037.107 -1235.45,27.19 -1211.172,21.382 			"/>
		</g>
		<g>
			<line fill="none" x1="-1114.33" y1="-1.79" x2="-633.401" y2="2008.123"/>
			<polygon fill="#1FA77D" points="-621.261,2005.215 -645.539,2011.025 -1126.469,1.115 -1102.191,-4.694 			"/>
		</g>
		<g>
			<line fill="none" x1="-1059.84" y1="-14.831" x2="-578.908" y2="1995.09"/>
			<polygon fill="#1FA77D" points="-566.77,1992.182 -591.048,1997.992 -1071.978,-11.925 -1047.701,-17.733 			"/>
		</g>
		<g>
			<line fill="none" x1="-1005.347" y1="-27.868" x2="-524.417" y2="1982.047"/>
			<polygon fill="#1FA77D" points="-512.278,1979.145 -536.556,1984.955 -1017.487,-24.964 -993.21,-30.774 			"/>
		</g>
		<g>
			<line fill="none" x1="-950.858" y1="-40.907" x2="-469.927" y2="1969.008"/>
			<polygon fill="#1FA77D" points="-457.789,1966.104 -482.065,1971.914 -962.997,-38.002 -938.719,-43.812 			"/>
		</g>
		<g>
			<line fill="none" x1="-787.385" y1="-80.02" x2="-306.457" y2="1929.889"/>
			<polygon fill="#1FA77D" points="-294.318,1926.986 -318.595,1932.797 -799.525,-77.115 -775.246,-82.925 			"/>
		</g>
		<g>
			<line fill="none" x1="-896.367" y1="-53.943" x2="-415.438" y2="1955.965"/>
			<polygon fill="#1FA77D" points="-403.299,1953.062 -427.578,1958.873 -908.507,-51.039 -884.228,-56.849 			"/>
		</g>
		<g>
			<line fill="none" x1="-841.877" y1="-66.984" x2="-360.946" y2="1942.932"/>
			<polygon fill="#1FA77D" points="-348.807,1940.027 -373.084,1945.838 -854.016,-64.079 -829.738,-69.889 			"/>
		</g>
		<g>
			<line fill="none" x1="-732.894" y1="-93.059" x2="-251.965" y2="1916.852"/>
			<polygon fill="#1FA77D" points="-239.827,1913.947 -264.104,1919.758 -745.033,-90.155 -720.755,-95.964 			"/>
		</g>
		<g>
			<line fill="none" x1="-678.403" y1="-106.1" x2="-197.471" y2="1903.816"/>
			<polygon fill="#1FA77D" points="-185.334,1900.914 -209.612,1906.723 -690.543,-103.195 -666.264,-109.004 			"/>
		</g>
		<g>
			<line fill="none" x1="-623.914" y1="-119.137" x2="-142.983" y2="1890.777"/>
			<polygon fill="#1FA77D" points="-130.844,1887.875 -155.123,1893.684 -636.053,-116.232 -611.775,-122.043 			"/>
		</g>
		<g>
			<line fill="none" x1="-569.423" y1="-132.177" x2="-88.492" y2="1877.74"/>
			<polygon fill="#1FA77D" points="-76.354,1874.836 -100.633,1880.645 -581.563,-129.272 -557.283,-135.081 			"/>
		</g>
		<g>
			<line fill="none" x1="-405.949" y1="-171.29" x2="74.981" y2="1838.621"/>
			<polygon fill="#1FA77D" points="87.119,1835.717 62.84,1841.527 -418.091,-168.386 -393.811,-174.195 			"/>
		</g>
		<g>
			<line fill="none" x1="-514.929" y1="-145.213" x2="-34.001" y2="1864.697"/>
			<polygon fill="#1FA77D" points="-21.863,1861.793 -46.141,1867.6 -527.07,-142.308 -502.792,-148.119 			"/>
		</g>
		<g>
			<line fill="none" x1="-460.44" y1="-158.254" x2="20.491" y2="1851.664"/>
			<polygon fill="#1FA77D" points="32.627,1848.758 8.349,1854.566 -472.581,-155.349 -448.303,-161.158 			"/>
		</g>
		<g>
			<line fill="none" x1="-351.458" y1="-184.329" x2="129.471" y2="1825.582"/>
			<polygon fill="#1FA77D" points="141.608,1822.68 117.332,1828.486 -363.598,-181.424 -339.322,-187.232 			"/>
		</g>
		<g>
			<line fill="none" x1="-296.969" y1="-197.37" x2="183.96" y2="1812.547"/>
			<polygon fill="#1FA77D" points="196.102,1809.645 171.824,1815.451 -309.109,-194.464 -284.831,-200.275 			"/>
		</g>
		<g>
			<line fill="none" x1="-242.475" y1="-210.409" x2="238.456" y2="1799.506"/>
			<polygon fill="#1FA77D" points="250.592,1796.604 226.315,1802.412 -254.617,-207.502 -230.337,-213.312 			"/>
		</g>
		<g>
			<line fill="none" x1="-187.987" y1="-223.446" x2="292.944" y2="1786.471"/>
			<polygon fill="#1FA77D" points="305.083,1783.564 280.801,1789.373 -200.129,-220.542 -175.85,-226.352 			"/>
		</g>
		<g>
			<line fill="none" x1="-24.514" y1="-262.561" x2="456.416" y2="1747.352"/>
			<polygon fill="#1FA77D" points="468.554,1744.445 444.277,1750.254 -36.654,-259.656 -12.374,-265.465 			"/>
		</g>
		<g>
			<line fill="none" x1="-133.496" y1="-236.483" x2="347.434" y2="1773.43"/>
			<polygon fill="#1FA77D" points="359.571,1770.521 335.295,1776.332 -145.634,-233.579 -121.358,-239.388 			"/>
		</g>
		<g>
			<line fill="none" x1="-79.007" y1="-249.524" x2="401.924" y2="1760.393"/>
			<polygon fill="#1FA77D" points="414.062,1757.49 389.784,1763.297 -91.148,-246.619 -66.871,-252.427 			"/>
		</g>
		<g>
			<line fill="none" x1="29.974" y1="-275.598" x2="510.904" y2="1734.312"/>
			<polygon fill="#1FA77D" points="523.043,1731.406 498.766,1737.217 17.836,-272.694 42.114,-278.503 			"/>
		</g>
		<g>
			<line fill="none" x1="84.467" y1="-288.64" x2="565.396" y2="1721.279"/>
			<polygon fill="#1FA77D" points="577.535,1718.371 553.258,1724.182 72.326,-285.735 96.606,-291.542 			"/>
		</g>
	</g>
</g>
</svg>
